<mxfile host="app.diagrams.net" modified="2022-04-15T03:28:13.933Z" agent="5.0 (Windows NT 10.0; Win64; x64) AppleWebKit/537.36 (KHTML, like Gecko) Chrome/100.0.4896.75 Safari/537.36" etag="ij7YvWwEXnVFGqjl6XYy" version="17.4.4" type="github">
  <diagram name="Page-1" id="c7558073-3199-34d8-9f00-42111426c3f3">
    <mxGraphModel dx="2246" dy="833" grid="1" gridSize="10" guides="1" tooltips="1" connect="1" arrows="1" fold="1" page="1" pageScale="1" pageWidth="826" pageHeight="1169" background="none" math="0" shadow="0">
      <root>
        <mxCell id="0" />
        <mxCell id="1" parent="0" />
        <mxCell id="kMCAit-QFaL6pi6tvJZl-2" style="edgeStyle=orthogonalEdgeStyle;rounded=0;orthogonalLoop=1;jettySize=auto;html=1;" edge="1" parent="1" source="Xh-UrtxgTZ_Xhu0wJ2Pf-98" target="kMCAit-QFaL6pi6tvJZl-1">
          <mxGeometry relative="1" as="geometry" />
        </mxCell>
        <mxCell id="kMCAit-QFaL6pi6tvJZl-9" value="&lt;span style=&quot;background-color: rgb(248 , 249 , 250)&quot;&gt;&lt;font style=&quot;font-size: 14px&quot; face=&quot;Georgia&quot;&gt;用户登陆获得Token&lt;/font&gt;&lt;/span&gt;" style="edgeLabel;html=1;align=center;verticalAlign=middle;resizable=0;points=[];" vertex="1" connectable="0" parent="kMCAit-QFaL6pi6tvJZl-2">
          <mxGeometry x="0.1789" relative="1" as="geometry">
            <mxPoint x="12" as="offset" />
          </mxGeometry>
        </mxCell>
        <mxCell id="kMCAit-QFaL6pi6tvJZl-7" style="edgeStyle=orthogonalEdgeStyle;rounded=0;orthogonalLoop=1;jettySize=auto;html=1;exitX=1;exitY=0.5;exitDx=0;exitDy=0;exitPerimeter=0;entryX=0;entryY=0.5;entryDx=0;entryDy=0;" edge="1" parent="1" source="Xh-UrtxgTZ_Xhu0wJ2Pf-98" target="kMCAit-QFaL6pi6tvJZl-5">
          <mxGeometry relative="1" as="geometry" />
        </mxCell>
        <mxCell id="kMCAit-QFaL6pi6tvJZl-8" value="&lt;font face=&quot;Georgia&quot; style=&quot;font-size: 14px&quot;&gt;获得CP相关信息&lt;/font&gt;" style="edgeLabel;html=1;align=center;verticalAlign=middle;resizable=0;points=[];" vertex="1" connectable="0" parent="kMCAit-QFaL6pi6tvJZl-7">
          <mxGeometry x="-0.3556" relative="1" as="geometry">
            <mxPoint x="22" as="offset" />
          </mxGeometry>
        </mxCell>
        <mxCell id="kMCAit-QFaL6pi6tvJZl-10" style="edgeStyle=orthogonalEdgeStyle;rounded=0;orthogonalLoop=1;jettySize=auto;html=1;exitX=0.5;exitY=1;exitDx=0;exitDy=0;exitPerimeter=0;" edge="1" parent="1" source="Xh-UrtxgTZ_Xhu0wJ2Pf-98">
          <mxGeometry relative="1" as="geometry">
            <mxPoint x="115" y="180" as="targetPoint" />
          </mxGeometry>
        </mxCell>
        <mxCell id="Xh-UrtxgTZ_Xhu0wJ2Pf-98" value="用户" style="strokeWidth=2;html=1;shape=mxgraph.flowchart.start_2;whiteSpace=wrap;shadow=1;" parent="1" vertex="1">
          <mxGeometry x="90" y="10" width="50" height="50" as="geometry" />
        </mxCell>
        <mxCell id="kMCAit-QFaL6pi6tvJZl-1" value="UC" style="rounded=1;whiteSpace=wrap;html=1;absoluteArcSize=1;arcSize=14;strokeWidth=2;shadow=1;" vertex="1" parent="1">
          <mxGeometry x="-180" y="12.5" width="80" height="45" as="geometry" />
        </mxCell>
        <mxCell id="kMCAit-QFaL6pi6tvJZl-5" value="SDK" style="rounded=1;whiteSpace=wrap;html=1;absoluteArcSize=1;arcSize=14;strokeWidth=2;shadow=1;" vertex="1" parent="1">
          <mxGeometry x="320" y="12.5" width="80" height="45" as="geometry" />
        </mxCell>
        <mxCell id="kMCAit-QFaL6pi6tvJZl-11" value="&lt;font style=&quot;font-size: 14px&quot; face=&quot;Georgia&quot;&gt;调用服务端接口:/order/v3/bug&lt;/font&gt;" style="text;html=1;align=center;verticalAlign=middle;resizable=0;points=[];autosize=1;strokeColor=none;fillColor=none;" vertex="1" parent="1">
          <mxGeometry x="15" y="110" width="210" height="20" as="geometry" />
        </mxCell>
        <mxCell id="kMCAit-QFaL6pi6tvJZl-13" style="edgeStyle=orthogonalEdgeStyle;rounded=0;orthogonalLoop=1;jettySize=auto;html=1;exitX=0.5;exitY=1;exitDx=0;exitDy=0;fontFamily=Georgia;fontSize=14;" edge="1" parent="1" source="kMCAit-QFaL6pi6tvJZl-12">
          <mxGeometry relative="1" as="geometry">
            <mxPoint x="115" y="310" as="targetPoint" />
          </mxGeometry>
        </mxCell>
        <mxCell id="kMCAit-QFaL6pi6tvJZl-12" value="&lt;font face=&quot;Georgia&quot; style=&quot;font-size: 14px&quot;&gt;账号实名以及封停验证&lt;/font&gt;" style="rounded=1;whiteSpace=wrap;html=1;absoluteArcSize=1;arcSize=14;strokeWidth=2;shadow=1;" vertex="1" parent="1">
          <mxGeometry x="75" y="180" width="80" height="45" as="geometry" />
        </mxCell>
        <mxCell id="kMCAit-QFaL6pi6tvJZl-15" value="" style="edgeStyle=orthogonalEdgeStyle;rounded=0;orthogonalLoop=1;jettySize=auto;html=1;fontFamily=Georgia;fontSize=14;exitX=0.5;exitY=0;exitDx=0;exitDy=0;" edge="1" parent="1" source="kMCAit-QFaL6pi6tvJZl-14" target="kMCAit-QFaL6pi6tvJZl-12">
          <mxGeometry relative="1" as="geometry" />
        </mxCell>
        <mxCell id="kMCAit-QFaL6pi6tvJZl-16" style="edgeStyle=orthogonalEdgeStyle;rounded=0;orthogonalLoop=1;jettySize=auto;html=1;exitX=0.5;exitY=1;exitDx=0;exitDy=0;fontFamily=Georgia;fontSize=14;" edge="1" parent="1" source="kMCAit-QFaL6pi6tvJZl-14">
          <mxGeometry relative="1" as="geometry">
            <mxPoint x="115" y="430" as="targetPoint" />
          </mxGeometry>
        </mxCell>
        <mxCell id="kMCAit-QFaL6pi6tvJZl-14" value="&lt;font style=&quot;font-size: 14px&quot; face=&quot;Georgia&quot;&gt;订单&lt;/font&gt;验证" style="rounded=1;whiteSpace=wrap;html=1;absoluteArcSize=1;arcSize=14;strokeWidth=2;shadow=1;" vertex="1" parent="1">
          <mxGeometry x="75" y="310" width="80" height="45" as="geometry" />
        </mxCell>
        <mxCell id="kMCAit-QFaL6pi6tvJZl-18" style="edgeStyle=orthogonalEdgeStyle;rounded=0;orthogonalLoop=1;jettySize=auto;html=1;exitX=0.5;exitY=1;exitDx=0;exitDy=0;fontFamily=Georgia;fontSize=14;" edge="1" parent="1" source="kMCAit-QFaL6pi6tvJZl-17">
          <mxGeometry relative="1" as="geometry">
            <mxPoint x="115" y="540" as="targetPoint" />
          </mxGeometry>
        </mxCell>
        <mxCell id="kMCAit-QFaL6pi6tvJZl-17" value="&lt;font face=&quot;Georgia&quot;&gt;&lt;span style=&quot;font-size: 14px&quot;&gt;游戏验证&lt;/span&gt;&lt;/font&gt;" style="rounded=1;whiteSpace=wrap;html=1;absoluteArcSize=1;arcSize=14;strokeWidth=2;shadow=1;" vertex="1" parent="1">
          <mxGeometry x="75" y="430" width="80" height="45" as="geometry" />
        </mxCell>
        <mxCell id="kMCAit-QFaL6pi6tvJZl-20" style="edgeStyle=orthogonalEdgeStyle;rounded=0;orthogonalLoop=1;jettySize=auto;html=1;exitX=0.5;exitY=1;exitDx=0;exitDy=0;fontFamily=Georgia;fontSize=14;" edge="1" parent="1" source="kMCAit-QFaL6pi6tvJZl-19">
          <mxGeometry relative="1" as="geometry">
            <mxPoint x="115" y="660" as="targetPoint" />
          </mxGeometry>
        </mxCell>
        <mxCell id="kMCAit-QFaL6pi6tvJZl-19" value="&lt;font face=&quot;Georgia&quot;&gt;&lt;span style=&quot;font-size: 14px&quot;&gt;签名验证&lt;/span&gt;&lt;/font&gt;" style="rounded=1;whiteSpace=wrap;html=1;absoluteArcSize=1;arcSize=14;strokeWidth=2;shadow=1;" vertex="1" parent="1">
          <mxGeometry x="75" y="540" width="80" height="45" as="geometry" />
        </mxCell>
        <mxCell id="kMCAit-QFaL6pi6tvJZl-22" style="edgeStyle=orthogonalEdgeStyle;rounded=0;orthogonalLoop=1;jettySize=auto;html=1;exitX=0.5;exitY=1;exitDx=0;exitDy=0;fontFamily=Georgia;fontSize=14;" edge="1" parent="1" source="kMCAit-QFaL6pi6tvJZl-21">
          <mxGeometry relative="1" as="geometry">
            <mxPoint x="115" y="760" as="targetPoint" />
          </mxGeometry>
        </mxCell>
        <mxCell id="kMCAit-QFaL6pi6tvJZl-21" value="&lt;font face=&quot;Georgia&quot;&gt;&lt;span style=&quot;font-size: 14px&quot;&gt;支付渠道黑名单过滤&lt;/span&gt;&lt;/font&gt;" style="rounded=1;whiteSpace=wrap;html=1;absoluteArcSize=1;arcSize=14;strokeWidth=2;shadow=1;" vertex="1" parent="1">
          <mxGeometry x="75" y="660" width="80" height="45" as="geometry" />
        </mxCell>
      </root>
    </mxGraphModel>
  </diagram>
</mxfile>
